Coordinates
version=1
nRows=4
nColumns=63
inDegrees=yes

Units are S.I. units (second, meters, Newtons, ...)
If the header above contains a line with 'inDegrees', this indicates whether rotational values are in degrees (yes) or radians (no).

endheader
time	pelvis_tilt	pelvis_list	pelvis_rotation	pelvis_tx	pelvis_ty	pelvis_tz	hip_flexion_r	hip_adduction_r	hip_rotation_r	knee_angle_r	knee_angle_r_beta	ankle_angle_r	subtalar_angle_r	mtp_angle_r	hip_flexion_l	hip_adduction_l	hip_rotation_l	knee_angle_l	knee_angle_l_beta	ankle_angle_l	subtalar_angle_l	mtp_angle_l	L5_S1_Flex_Ext	L5_S1_Lat_Bending	L5_S1_axial_rotation	L4_L5_Flex_Ext	L4_L5_Lat_Bending	L4_L5_axial_rotation	L3_L4_Flex_Ext	L3_L4_Lat_Bending	L3_L4_axial_rotation	L2_L3_Flex_Ext	L2_L3_Lat_Bending	L2_L3_axial_rotation	L1_L2_Flex_Ext	L1_L2_Lat_Bending	L1_L2_axial_rotation	L1_T12_Flex_Ext	L1_T12_Lat_Bending	L1_T12_axial_rotation	Abs_r3	Abs_r2	Abs_r1	Abs_t1	Abs_t2	neck_flexion	neck_bending	neck_rotation	arm_flex_r	arm_add_r	arm_rot_r	elbow_flex_r	pro_sup_r	wrist_flex_r	wrist_dev_r	arm_flex_l	arm_add_l	arm_rot_l	elbow_flex_l	pro_sup_l	wrist_flex_l	wrist_dev_l
      4.35593220	      0.43328132	    -15.87843034	     94.40523811	      0.15267085	      0.96312152	      0.35574186	      0.94388587	      0.81198097	    -23.08698447	      9.93306267	      0.17336465	     33.49941673	      7.17753812	      0.00000000	      0.84286944	     -1.50047318	      9.93499429	      1.50601508	      0.02628492	     31.91943137	     -2.13696020	      0.00000000	      0.07282428	      0.37860717	     -0.84824255	      0.13524197	      0.50354754	     -0.90125771	      0.11964301	      0.92054548	     -0.90125771	      0.08323087	      0.92054548	     -0.74221223	      0.06762463	      0.77205575	     -0.68919707	      0.04161179	      0.58646251	     -0.63618191	      0.52017654	      4.28288007	     -4.71767058	      0.00000000	      0.00000000	     12.42393288	     -1.91817836	     -7.25996846	     -0.31571361	    -16.95685497	     53.09256689	     26.62097889	     63.03013540	      5.95715828	     -4.52479119	      0.67800757	    -12.56037960	     51.59592496	     31.29369359	     75.33875912	     -3.86197464	     -5.41509181
      4.37288136	      0.31509186	    -15.91084005	     93.95493567	      0.15351890	      0.96334559	      0.35654957	      1.10798991	      0.72472083	    -22.36580039	     10.00746839	      0.17466327	     33.50478645	      6.73148192	      0.00000000	      0.92436274	     -1.41514778	      8.60390147	      1.57786549	      0.02753895	     32.07987353	     -0.91618405	      0.00000000	      0.06407036	      0.36437878	     -0.77882812	      0.11898507	      0.48462378	     -0.82750488	      0.10526119	      0.88595057	     -0.82750488	      0.07322601	      0.88595057	     -0.68147460	      0.05949574	      0.74304121	     -0.63279785	      0.03660980	      0.56442273	     -0.58412109	      0.45764817	      4.12192563	     -4.33160835	      0.00000000	      0.00000000	     12.55578525	     -1.65445438	     -7.17591134	     -0.32066620	    -16.94556278	     52.99666640	     26.81052140	     61.77573163	      5.87282522	     -3.80195821	      0.87773349	    -12.62815839	     51.99701421	     31.30838996	     74.37530968	     -4.02497752	     -4.88916196
      4.38983051	      0.29297240	    -16.05278603	     93.91912387	      0.15386986	      0.96349633	      0.35736868	      1.37622670	      0.70194454	    -22.15464270	     10.08494969	      0.17601558	     33.62348671	      6.40210282	      0.00000000	      1.22141181	     -1.40825260	      7.55656099	      1.74975365	      0.03053896	     32.24531704	      0.36735581	      0.00000000	      0.07588252	      0.36013392	     -0.77698283	      0.14092144	      0.47897811	     -0.82554426	      0.12466740	      0.87562961	     -0.82554426	      0.08672614	      0.87562961	     -0.67985998	      0.07046451	      0.73438509	     -0.63129855	      0.04335927	      0.55784744	     -0.58273712	      0.54202128	      4.07390691	     -4.32134541	      0.00000000	      0.00000000	     12.98980670	     -1.58197654	     -7.33621569	     -0.17512590	    -16.90416791	     53.33053239	     26.53596507	     60.82451492	      6.80016085	     -3.83825180	      1.17845031	    -12.70531238	     52.98877354	     31.06340364	     73.76282612	     -4.24605266	     -5.47316091
      4.40677966	      0.22684126	    -16.08557303	     93.77949550	      0.15415367	      0.96371630	      0.35786641	      1.44912116	      0.47554367	    -23.87746650	     10.18173163	      0.17770474	     34.12535365	      8.80954430	      0.00000000	      1.22566155	     -1.31225817	      9.37561698	      1.61747733	      0.02823031	     31.62707682	     -2.31688395	      0.00000000	      0.07188192	      0.35392455	     -0.78047556	      0.13349191	      0.47071966	     -0.82925529	      0.11809481	      0.86053216	     -0.82925529	      0.08215385	      0.86053216	     -0.68291612	      0.06674955	      0.72172295	     -0.63413640	      0.04107333	      0.54822913	     -0.58535667	      0.51344536	      4.00366533	     -4.34077094	      0.00000000	      0.00000000	     13.58523242	     -1.46592498	     -7.41501985	     -0.02799353	    -16.97532520	     53.74463573	     26.60079621	     60.28322670	      7.06955059	     -3.73735354	      1.04377863	    -12.70557767	     52.29213091	     31.17152574	     74.23840104	     -4.20287981	     -5.23208297
